<svg height="1070" width="720" xmlns="http://www.w3.org/2000/svg">
<rect height="1070" fill="#555" width="720"></rect>
<text fill="#7f7" font-family="Courier New" font-size="12" xml:space="preserve">
<tspan x="10" y="26">8 megabytes</tspan>
<tspan x="10" y="42">└─┬ node-tweet-stream@2.0.1 </tspan>
<tspan x="10" y="58">  ├─┬ event-stream@3.1.7 </tspan>
<tspan x="10" y="74">  │ ├── duplexer@0.1.1 </tspan>
<tspan x="10" y="90">  │ ├── from@0.1.7 </tspan>
<tspan x="10" y="106">  │ ├── map-stream@0.1.0 </tspan>
<tspan x="10" y="122">  │ ├── pause-stream@0.0.11 </tspan>
<tspan x="10" y="138">  │ ├── split@0.2.10 </tspan>
<tspan x="10" y="154">  │ ├── stream-combiner@0.0.4 </tspan>
<tspan x="10" y="170">  │ └── through@2.3.8 </tspan>
<tspan x="10" y="186">  ├─┬ request@2.81.0 </tspan>
<tspan x="10" y="202">  │ ├── aws-sign2@0.6.0 </tspan>
<tspan x="10" y="218">  │ ├── aws4@1.6.0 </tspan>
<tspan x="10" y="234">  │ ├── caseless@0.12.0 </tspan>
<tspan x="10" y="250">  │ ├─┬ combined-stream@1.0.5 </tspan>
<tspan x="10" y="266">  │ │ └── delayed-stream@1.0.0 </tspan>
<tspan x="10" y="282">  │ ├── extend@3.0.0 </tspan>
<tspan x="10" y="298">  │ ├── forever-agent@0.6.1 </tspan>
<tspan x="10" y="314">  │ ├─┬ form-data@2.1.2 </tspan>
<tspan x="10" y="330">  │ │ └── asynckit@0.4.0 </tspan>
<tspan x="10" y="346">  │ ├─┬ har-validator@4.2.1 </tspan>
<tspan x="10" y="362">  │ │ ├─┬ ajv@4.11.5 </tspan>
<tspan x="10" y="378">  │ │ │ ├── co@4.6.0 </tspan>
<tspan x="10" y="394">  │ │ │ └─┬ json-stable-stringify@1.0.1 </tspan>
<tspan x="10" y="410">  │ │ │   └── jsonify@0.0.0 </tspan>
<tspan x="10" y="426">  │ │ └── har-schema@1.0.5 </tspan>
<tspan x="10" y="442">  │ ├─┬ hawk@3.1.3 </tspan>
<tspan x="10" y="458">  │ │ ├── boom@2.10.1 </tspan>
<tspan x="10" y="474">  │ │ ├── cryptiles@2.0.5 </tspan>
<tspan x="10" y="490">  │ │ ├── hoek@2.16.3 </tspan>
<tspan x="10" y="506">  │ │ └── sntp@1.0.9 </tspan>
<tspan x="10" y="522">  │ ├─┬ http-signature@1.1.1 </tspan>
<tspan x="10" y="538">  │ │ ├── assert-plus@0.2.0 </tspan>
<tspan x="10" y="554">  │ │ ├─┬ jsprim@1.4.0 </tspan>
<tspan x="10" y="570">  │ │ │ ├── assert-plus@1.0.0 </tspan>
<tspan x="10" y="586">  │ │ │ ├── extsprintf@1.0.2 </tspan>
<tspan x="10" y="602">  │ │ │ ├── json-schema@0.2.3 </tspan>
<tspan x="10" y="618">  │ │ │ └── verror@1.3.6 </tspan>
<tspan x="10" y="634">  │ │ └─┬ sshpk@1.11.0 </tspan>
<tspan x="10" y="650">  │ │   ├── asn1@0.2.3 </tspan>
<tspan x="10" y="666">  │ │   ├── assert-plus@1.0.0 </tspan>
<tspan x="10" y="682">  │ │   ├── bcrypt-pbkdf@1.0.1 </tspan>
<tspan x="10" y="698">  │ │   ├─┬ dashdash@1.14.1 </tspan>
<tspan x="10" y="714">  │ │   │ └── assert-plus@1.0.0 </tspan>
<tspan x="10" y="730">  │ │   ├── ecc-jsbn@0.1.1 </tspan>
<tspan x="10" y="746">  │ │   ├─┬ getpass@0.1.6 </tspan>
<tspan x="10" y="762">  │ │   │ └── assert-plus@1.0.0 </tspan>
<tspan x="10" y="778">  │ │   ├── jodid25519@1.0.2 </tspan>
<tspan x="10" y="794">  │ │   ├── jsbn@0.1.1 </tspan>
<tspan x="10" y="810">  │ │   └── tweetnacl@0.14.5 </tspan>
<tspan x="10" y="826">  │ ├── is-typedarray@1.0.0 </tspan>
<tspan x="10" y="842">  │ ├── isstream@0.1.2 </tspan>
<tspan x="10" y="858">  │ ├── json-stringify-safe@5.0.1 </tspan>
<tspan x="10" y="874">  │ ├─┬ mime-types@2.1.15 </tspan>
<tspan x="10" y="890">  │ │ └── mime-db@1.27.0 </tspan>
<tspan x="10" y="906">  │ ├── oauth-sign@0.8.2 </tspan>
<tspan x="10" y="922">  │ ├── performance-now@0.2.0 </tspan>
<tspan x="10" y="938">  │ ├── qs@6.4.0 </tspan>
<tspan x="10" y="954">  │ ├── safe-buffer@5.0.1 </tspan>
<tspan x="10" y="970">  │ ├── stringstream@0.0.5 </tspan>
<tspan x="10" y="986">  │ ├─┬ tough-cookie@2.3.2 </tspan>
<tspan x="10" y="1002">  │ │ └── punycode@1.4.1 </tspan>
<tspan x="10" y="1018">  │ ├── tunnel-agent@0.6.0 </tspan>
<tspan x="10" y="1034">  │ └── uuid@3.0.1 </tspan>
<tspan x="10" y="1050">  └── split@0.3.3</tspan>
</text>
</svg>
